<svg version="1.1" viewBox="0.0 0.0 600.0 371.0" fill="none" stroke="none" stroke-linecap="square" stroke-miterlimit="10" width="600" height="371" xmlns:xlink="http://www.w3.org/1999/xlink" xmlns="http://www.w3.org/2000/svg"><path fill="#ffffff" d="M0 0L600.0 0L600.0 371.0L0 371.0L0 0Z" fill-rule="nonzero"/><path fill="#ffffff" d="M0 0L600.0 0L600.0 371.0L0 371.0L0 0Z" fill-rule="nonzero"/><path stroke="#cccccc" stroke-width="1.0" stroke-linecap="butt" d="M88.5 89.5L88.5 298.5" fill-rule="nonzero"/><path stroke="#cccccc" stroke-width="1.0" stroke-linecap="butt" d="M184.5 89.5L184.5 298.5" fill-rule="nonzero"/><path stroke="#cccccc" stroke-width="1.0" stroke-linecap="butt" d="M281.5 89.5L281.5 298.5" fill-rule="nonzero"/><path stroke="#cccccc" stroke-width="1.0" stroke-linecap="butt" d="M378.5 89.5L378.5 298.5" fill-rule="nonzero"/><path stroke="#cccccc" stroke-width="1.0" stroke-linecap="butt" d="M475.5 89.5L475.5 298.5" fill-rule="nonzero"/><path stroke="#cccccc" stroke-width="1.0" stroke-linecap="butt" d="M571.5 89.5L571.5 298.5" fill-rule="nonzero"/><path stroke="#333333" stroke-width="1.0" stroke-linecap="butt" d="M78.5 298.5L581.5 298.5" fill-rule="nonzero"/><path stroke="#cccccc" stroke-width="1.0" stroke-linecap="butt" d="M78.5 256.5L581.5 256.5" fill-rule="nonzero"/><path stroke="#cccccc" stroke-width="1.0" stroke-linecap="butt" d="M78.5 214.5L581.5 214.5" fill-rule="nonzero"/><path stroke="#cccccc" stroke-width="1.0" stroke-linecap="butt" d="M78.5 173.5L581.5 173.5" fill-rule="nonzero"/><path stroke="#cccccc" stroke-width="1.0" stroke-linecap="butt" d="M78.5 131.5L581.5 131.5" fill-rule="nonzero"/><path stroke="#cccccc" stroke-width="1.0" stroke-linecap="butt" d="M78.5 89.5L581.5 89.5" fill-rule="nonzero"/><clipPath id="id_0"><path d="M78.55 89.78333L581.45 89.78333L581.45 298.45L78.55 298.45L78.55 89.78333Z" clip-rule="nonzero"/></clipPath><path stroke="#4285f4" stroke-width="2.0" stroke-linecap="butt" clip-path="url(#id_0)" d="M88.16752 123.945404C88.16752 123.945404 152.65617 119.001434 184.90051 118.7976C217.14484 118.593765 346.12216 126.75861 378.3665 126.647224C410.61084 126.53583 442.85516 119.02943 475.0995 122.054054C507.3438 125.078674 571.83246 144.79497 571.83246 144.79497" fill-rule="nonzero"/><path stroke="#db4437" stroke-width="2.0" stroke-linecap="butt" clip-path="url(#id_0)" d="M88.16752 204.52121C88.16752 204.52121 152.65617 208.8141 184.90051 209.16487C217.14484 209.51564 346.12216 204.96553 378.3665 204.08676C410.61084 203.208 442.85516 201.58763 475.0995 201.35323C507.3438 201.11882 571.83246 202.68034 571.83246 202.68034" fill-rule="nonzero"/><path stroke="#f4b400" stroke-width="2.0" stroke-linecap="butt" clip-path="url(#id_0)" d="M88.16752 218.91795C88.16752 218.91795 152.65617 217.37886 184.90051 216.68648C217.14484 215.99408 346.12216 212.48576 378.3665 212.84074C410.61084 213.19572 442.85516 216.01721 475.0995 216.89346C507.3438 217.76973 571.83246 218.09831 571.83246 218.09831" fill-rule="nonzero"/><path stroke="#0f9d58" stroke-width="2.0" stroke-linecap="butt" clip-path="url(#id_0)" d="M88.16752 216.97986C88.16752 216.97986 152.65617 218.35529 184.90051 218.10081C217.14484 217.84634 346.12216 212.92737 378.3665 212.80527C410.61084 212.68317 442.85516 214.20946 475.0995 214.72041C507.3438 215.23137 571.83246 215.871 571.83246 215.871" fill-rule="nonzero"/><path fill="#4285f4" clip-path="url(#id_0)" d="M88.16752 117.945404L93.36367 126.945404L82.97137 126.945404Z" fill-rule="nonzero"/><path fill="#4285f4" clip-path="url(#id_0)" d="M184.90051 112.7976L190.09666 121.7976L179.70436 121.7976Z" fill-rule="nonzero"/><path fill="#4285f4" clip-path="url(#id_0)" d="M378.3665 120.647224L383.56265 129.64722L373.17035 129.64722Z" fill-rule="nonzero"/><path fill="#4285f4" clip-path="url(#id_0)" d="M475.0995 116.054054L480.29565 125.054054L469.90335 125.054054Z" fill-rule="nonzero"/><path fill="#4285f4" clip-path="url(#id_0)" d="M571.83246 138.79497L577.0286 147.79497L566.63635 147.79497Z" fill-rule="nonzero"/><path fill="#db4437" clip-path="url(#id_0)" d="M94.16752 204.52121C94.16752 207.83492 91.481224 210.52121 88.16752 210.52121C84.853806 210.52121 82.16752 207.83492 82.16752 204.52121C82.16752 201.20749 84.853806 198.52121 88.16752 198.52121C91.481224 198.52121 94.16752 201.20749 94.16752 204.52121Z" fill-rule="nonzero"/><path fill="#db4437" clip-path="url(#id_0)" d="M190.90051 209.16487C190.90051 212.47858 188.21422 215.16487 184.90051 215.16487C181.5868 215.16487 178.90051 212.47858 178.90051 209.16487C178.90051 205.85117 181.5868 203.16487 184.90051 203.16487C188.21422 203.16487 190.90051 205.85117 190.90051 209.16487Z" fill-rule="nonzero"/><path fill="#db4437" clip-path="url(#id_0)" d="M384.3665 204.08676C384.3665 207.40047 381.6802 210.08676 378.3665 210.08676C375.0528 210.08676 372.3665 207.40047 372.3665 204.08676C372.3665 200.77306 375.0528 198.08676 378.3665 198.08676C381.6802 198.08676 384.3665 200.77306 384.3665 204.08676Z" fill-rule="nonzero"/><path fill="#db4437" clip-path="url(#id_0)" d="M481.0995 201.35323C481.0995 204.66693 478.4132 207.35323 475.0995 207.35323C471.78577 207.35323 469.0995 204.66693 469.0995 201.35323C469.0995 198.03952 471.78577 195.35323 475.0995 195.35323C478.4132 195.35323 481.0995 198.03952 481.0995 201.35323Z" fill-rule="nonzero"/><path fill="#db4437" clip-path="url(#id_0)" d="M577.83246 202.68034C577.83246 205.99405 575.1462 208.68034 571.83246 208.68034C568.5188 208.68034 565.83246 205.99405 565.83246 202.68034C565.83246 199.36664 568.5188 196.68034 571.83246 196.68034C575.1462 196.68034 577.83246 199.36664 577.83246 202.68034Z" fill-rule="nonzero"/><path fill="#f4b400" clip-path="url(#id_0)" d="M83.92487 214.67531L92.41016 214.67531L92.41016 223.1606L83.92487 223.1606Z" fill-rule="nonzero"/><path fill="#f4b400" clip-path="url(#id_0)" d="M180.65787 212.44383L189.14316 212.44383L189.14316 220.92911L180.65787 220.92911Z" fill-rule="nonzero"/><path fill="#f4b400" clip-path="url(#id_0)" d="M374.12387 208.5981L382.60913 208.5981L382.60913 217.08339L374.12387 217.08339Z" fill-rule="nonzero"/><path fill="#f4b400" clip-path="url(#id_0)" d="M470.85684 212.65083L479.34213 212.65083L479.34213 221.13611L470.85684 221.13611Z" fill-rule="nonzero"/><path fill="#f4b400" clip-path="url(#id_0)" d="M567.58984 213.85567L576.07513 213.85567L576.07513 222.34096L567.58984 222.34096Z" fill-rule="nonzero"/><path fill="#0f9d58" clip-path="url(#id_0)" d="M88.16752 210.97986L93.873856 215.12575L91.69423 221.83395L84.64081 221.83395L82.46118 215.12575Z" fill-rule="nonzero"/><path fill="#0f9d58" clip-path="url(#id_0)" d="M184.90051 212.10081L190.60686 216.2467L188.42722 222.95491L181.3738 222.95491L179.19417 216.2467Z" fill-rule="nonzero"/><path fill="#0f9d58" clip-path="url(#id_0)" d="M378.3665 206.80527L384.07285 210.95117L381.89322 217.65938L374.83978 217.65938L372.66016 210.95117Z" fill-rule="nonzero"/><path fill="#0f9d58" clip-path="url(#id_0)" d="M475.0995 208.72041L480.80582 212.86632L478.6262 219.57451L471.57278 219.57451L469.39316 212.86632Z" fill-rule="nonzero"/><path fill="#0f9d58" clip-path="url(#id_0)" d="M571.83246 209.871L577.5388 214.0169L575.3592 220.7251L568.3058 220.7251L566.12616 214.0169Z" fill-rule="nonzero"/><path fill="#000000" d="M314.89062 341.84064L312.14062 341.84064L312.14062 349.45L311.03125 349.45L311.03125 341.84064L308.28125 341.84064L308.28125 340.91876L314.89062 340.91876L314.89062 341.84064ZM316.90625 343.8719Q317.625 342.9969 318.78125 342.9969Q320.79688 342.9969 320.8125 345.2625L320.8125 349.45L319.71875 349.45L319.71875 345.2469Q319.71875 344.575 319.40625 344.2469Q319.10938 343.91876 318.45312 343.91876Q317.92188 343.91876 317.51562 344.2Q317.125 344.48126 316.90625 344.9344L316.90625 349.45L315.82812 349.45L315.82812 340.45L316.90625 340.45L316.90625 343.8719ZM325.89062 344.075Q325.64062 344.04376 325.35938 344.04376Q324.28125 344.04376 323.90625 344.95L323.90625 349.45L322.82812 349.45L322.82812 343.10626L323.875 343.10626L323.89062 343.84064Q324.42188 342.9969 325.40625 342.9969Q325.71875 342.9969 325.89062 343.075L325.89062 344.075ZM329.45312 349.575Q328.15625 349.575 327.34375 348.73126Q326.54688 347.8719 326.54688 346.45L326.54688 346.2625Q326.54688 345.3094 326.90625 344.575Q327.26562 343.825 327.90625 343.41876Q328.5625 342.9969 329.3125 342.9969Q330.54688 342.9969 331.23438 343.8094Q331.92188 344.6219 331.92188 346.1375L331.92188 346.59064L327.625 346.59064Q327.65625 347.52814 328.17188 348.10626Q328.70312 348.6844 329.51562 348.6844Q330.07812 348.6844 330.46875 348.45Q330.875 348.21564 331.1875 347.825L331.84375 348.34064Q331.04688 349.575 329.45312 349.575ZM329.3125 343.8875Q328.65625 343.8875 328.20312 344.3719Q327.76562 344.84064 327.67188 345.7L330.84375 345.7L330.84375 345.6219Q330.79688 344.79376 330.39062 344.34064Q330.0 343.8875 329.3125 343.8875ZM336.73438 349.45Q336.64062 349.2625 336.57812 348.77814Q335.82812 349.575 334.78125 349.575Q333.84375 349.575 333.23438 349.04376Q332.64062 348.5125 332.64062 347.6844Q332.64062 346.7 333.39062 346.15314Q334.14062 345.60626 335.51562 345.60626L336.5625 345.60626L336.5625 345.10626Q336.5625 344.54376 336.21875 344.21564Q335.89062 343.8719 335.21875 343.8719Q334.64062 343.8719 334.25 344.16876Q333.85938 344.45 333.85938 344.8719L332.76562 344.8719Q332.76562 344.3875 333.09375 343.95Q333.4375 343.5125 334.01562 343.2625Q334.59375 342.9969 335.28125 342.9969Q336.39062 342.9969 337.0 343.54376Q337.625 344.09064 337.65625 345.04376L337.65625 347.96564Q337.65625 348.84064 337.875 349.35626L337.875 349.45L336.73438 349.45ZM334.9375 348.6219Q335.45312 348.6219 335.90625 348.35626Q336.35938 348.09064 336.5625 347.66876L336.5625 346.3719L335.71875 346.3719Q333.71875 346.3719 333.71875 347.54376Q333.71875 348.04376 334.0625 348.34064Q334.40625 348.6219 334.9375 348.6219ZM339.5625 346.23126Q339.5625 344.7625 340.25 343.8875Q340.9375 342.9969 342.0625 342.9969Q343.17188 342.9969 343.82812 343.7469L343.82812 340.45L344.90625 340.45L344.90625 349.45L343.90625 349.45L343.85938 348.7625Q343.20312 349.575 342.04688 349.575Q340.95312 349.575 340.25 348.66876Q339.5625 347.7625 339.5625 346.3094L339.5625 346.23126ZM340.64062 346.35626Q340.64062 347.4344 341.07812 348.04376Q341.53125 348.65314 342.3125 348.65314Q343.34375 348.65314 343.82812 347.71564L343.82812 344.8094Q343.34375 343.91876 342.32812 343.91876Q341.53125 343.91876 341.07812 344.52814Q340.64062 345.1375 340.64062 346.35626ZM350.51562 347.7625Q350.51562 347.325 350.17188 347.09064Q349.84375 346.84064 349.01562 346.66876Q348.20312 346.4969 347.71875 346.2469Q347.23438 345.9969 347.0 345.66876Q346.78125 345.325 346.78125 344.85626Q346.78125 344.075 347.4375 343.54376Q348.09375 342.9969 349.125 342.9969Q350.20312 342.9969 350.85938 343.5594Q351.53125 344.10626 351.53125 344.96564L350.45312 344.96564Q350.45312 344.52814 350.0625 344.21564Q349.6875 343.8875 349.125 343.8875Q348.53125 343.8875 348.1875 344.15314Q347.85938 344.40314 347.85938 344.8094Q347.85938 345.2 348.17188 345.40314Q348.48438 345.60626 349.29688 345.79376Q350.10938 345.96564 350.60938 346.21564Q351.10938 346.46564 351.34375 346.825Q351.59375 347.1844 351.59375 347.6844Q351.59375 348.54376 350.90625 349.0594Q350.23438 349.575 349.15625 349.575Q348.39062 349.575 347.79688 349.3094Q347.21875 349.02814 346.89062 348.54376Q346.5625 348.0594 346.5625 347.4969L347.64062 347.4969Q347.67188 348.04376 348.07812 348.3719Q348.48438 348.6844 349.15625 348.6844Q349.76562 348.6844 350.14062 348.4344Q350.51562 348.1844 350.51562 347.7625Z" fill-rule="nonzero"/><path fill="#000000" d="M22.940638 246.47604L22.940638 249.22604L30.550013 249.22604L30.550013 250.33542L22.940638 250.33542L22.940638 253.08542L22.018763 253.08542L22.018763 246.47604L22.940638 246.47604ZM24.971888 244.46042Q24.096888 243.74167 24.096888 242.58542Q24.096888 240.5698 26.362513 240.55417L30.550013 240.55417L30.550013 241.64792L26.346888 241.64792Q25.675013 241.64792 25.346888 241.96042Q25.018763 242.2573 25.018763 242.91354Q25.018763 243.4448 25.300013 243.85104Q25.581263 244.24167 26.034388 244.46042L30.550013 244.46042L30.550013 245.53854L21.550013 245.53854L21.550013 244.46042L24.971888 244.46042ZM25.175013 235.47604Q25.143763 235.72604 25.143763 236.0073Q25.143763 237.08542 26.050013 237.46042L30.550013 237.46042L30.550013 238.53854L24.206263 238.53854L24.206263 237.49167L24.940638 237.47604Q24.096888 236.9448 24.096888 235.96042Q24.096888 235.64792 24.175013 235.47604L25.175013 235.47604ZM27.315638 234.83542Q26.393763 234.83542 25.643763 234.47604Q24.893763 234.10104 24.503138 233.4448Q24.096888 232.78854 24.096888 231.96042Q24.096888 230.66354 24.987513 229.86667Q25.878138 229.05417 27.378138 229.05417L27.456263 229.05417Q28.378138 229.05417 29.112513 229.41354Q29.846888 229.77292 30.268763 230.42917Q30.675013 231.08542 30.675013 231.9448Q30.675013 233.22604 29.784388 234.03854Q28.878138 234.83542 27.393763 234.83542L27.315638 234.83542ZM27.456263 233.74167Q28.503138 233.74167 29.143763 233.2573Q29.784388 232.7573 29.784388 231.9448Q29.784388 231.11667 29.143763 230.6323Q28.487513 230.14792 27.315638 230.14792Q26.284388 230.14792 25.643763 230.64792Q24.987513 231.1323 24.987513 231.96042Q24.987513 232.7573 25.628138 233.2573Q26.253138 233.74167 27.456263 233.74167ZM29.925013 223.6323Q30.675013 224.2573 30.675013 225.49167Q30.675013 226.5073 30.081263 227.03854Q29.487513 227.5698 28.331263 227.5698L24.206263 227.5698L24.206263 226.49167L28.300013 226.49167Q29.753138 226.49167 29.753138 225.3198Q29.753138 224.0698 28.815638 223.66354L24.206263 223.66354L24.206263 222.5698L30.550013 222.5698L30.550013 223.60104L29.925013 223.6323ZM27.331263 220.80417Q25.846888 220.80417 24.971888 220.11667Q24.096888 219.42917 24.096888 218.30417Q24.096888 217.14792 24.909388 216.49167L24.206263 216.4448L24.206263 215.4448L30.393763 215.4448Q31.628138 215.4448 32.33126 216.17917Q33.05001 216.91354 33.05001 218.1323Q33.05001 218.8198 32.753136 219.47604Q32.45626 220.1323 31.956263 220.47604L31.300013 219.91354Q32.159386 219.22604 32.159386 218.21042Q32.159386 217.42917 31.706263 216.99167Q31.268763 216.53854 30.456263 216.53854L29.909388 216.53854Q30.675013 217.1948 30.675013 218.3198Q30.675013 219.42917 29.784388 220.11667Q28.878138 220.80417 27.331263 220.80417ZM27.456263 219.71042Q28.518763 219.71042 29.143763 219.27292Q29.753138 218.83542 29.753138 218.03854Q29.753138 217.02292 28.815638 216.53854L25.925013 216.53854Q25.018763 217.03854 25.018763 218.03854Q25.018763 218.8198 25.628138 219.27292Q26.237513 219.71042 27.456263 219.71042ZM24.971888 212.46042Q24.096888 211.74167 24.096888 210.58542Q24.096888 208.5698 26.362513 208.55417L30.550013 208.55417L30.550013 209.64792L26.346888 209.64792Q25.675013 209.64792 25.346888 209.96042Q25.018763 210.2573 25.018763 210.91354Q25.018763 211.4448 25.300013 211.85104Q25.581263 212.24167 26.034388 212.46042L30.550013 212.46042L30.550013 213.53854L21.550013 213.53854L21.550013 212.46042L24.971888 212.46042ZM27.456263 201.1948Q28.893763 201.1948 29.784388 201.85104Q30.675013 202.5073 30.675013 203.64792Q30.675013 204.80417 29.940638 205.46042L32.98751 205.46042L32.98751 206.53854L24.206263 206.53854L24.206263 205.55417L24.909388 205.5073Q24.096888 204.83542 24.096888 203.66354Q24.096888 202.52292 24.956263 201.86667Q25.815638 201.1948 27.346888 201.1948L27.456263 201.1948ZM27.331263 202.27292Q26.253138 202.27292 25.643763 202.74167Q25.018763 203.1948 25.018763 203.99167Q25.018763 204.97604 25.878138 205.46042L28.909388 205.46042Q29.784388 204.97604 29.784388 203.97604Q29.784388 203.1948 29.175013 202.74167Q28.550013 202.27292 27.331263 202.27292ZM29.925013 195.6323Q30.675013 196.2573 30.675013 197.49167Q30.675013 198.5073 30.081263 199.03854Q29.487513 199.5698 28.331263 199.5698L24.206263 199.5698L24.206263 198.49167L28.300013 198.49167Q29.753138 198.49167 29.753138 197.3198Q29.753138 196.0698 28.815638 195.66354L24.206263 195.66354L24.206263 194.5698L30.550013 194.5698L30.550013 195.60104L29.925013 195.6323ZM22.675013 191.0698L24.206263 191.0698L24.206263 189.89792L25.050013 189.89792L25.050013 191.0698L28.971888 191.0698Q29.362513 191.0698 29.550013 190.91354Q29.737513 190.7573 29.737513 190.3823Q29.737513 190.1948 29.675013 189.86667L30.550013 189.86667Q30.675013 190.28854 30.675013 190.6948Q30.675013 191.41354 30.237513 191.78854Q29.784388 192.16354 28.971888 192.16354L25.050013 192.16354L25.050013 193.3198L24.206263 193.3198L24.206263 192.16354L22.675013 192.16354L22.675013 191.0698ZM27.081263 185.58542Q25.768763 185.58542 24.550013 185.24167Q23.331263 184.8823 22.331263 184.17917Q21.331263 183.47604 20.925013 182.71042L21.643763 182.49167Q22.300013 183.35104 23.643763 183.89792Q24.987513 184.4448 26.659388 184.49167L27.159388 184.5073Q29.425013 184.5073 31.081263 183.67917Q32.08126 183.17917 32.64376 182.49167L33.30001 182.71042Q32.878136 183.49167 31.846888 184.21042Q29.862513 185.58542 27.081263 185.58542ZM26.581263 179.21042L27.659388 180.2573L30.550013 180.2573L30.550013 181.3823L22.018763 181.3823L22.018763 180.2573L26.237513 180.2573L22.018763 176.46042L22.018763 175.10104L25.784388 178.46042L30.550013 174.83542L30.550013 176.17917L26.581263 179.21042ZM26.565638 166.8198Q27.815638 166.8198 28.753138 167.24167Q29.675013 167.66354 30.175013 168.4448Q30.675013 169.21042 30.675013 170.24167Q30.675013 171.24167 30.175013 172.02292Q29.675013 172.80417 28.768763 173.24167Q27.846888 173.66354 26.628138 173.67917L26.018763 173.67917Q24.784388 173.67917 23.846888 173.2573Q22.909388 172.8198 22.409388 172.03854Q21.893763 171.2573 21.893763 170.24167Q21.893763 169.22604 22.393763 168.4448Q22.893763 167.66354 23.831263 167.24167Q24.768763 166.8198 26.018763 166.8198L26.565638 166.8198ZM26.003138 167.92917Q24.487513 167.92917 23.675013 168.53854Q22.862513 169.14792 22.862513 170.24167Q22.862513 171.3198 23.675013 171.92917Q24.487513 172.53854 25.925013 172.55417L26.565638 172.55417Q28.034388 172.55417 28.878138 171.9448Q29.706263 171.3198 29.706263 170.24167Q29.706263 169.14792 28.925013 168.55417Q28.128138 167.9448 26.643763 167.92917L26.003138 167.92917ZM27.456263 160.1948Q28.893763 160.1948 29.784388 160.85104Q30.675013 161.5073 30.675013 162.64792Q30.675013 163.80417 29.940638 164.46042L32.98751 164.46042L32.98751 165.53854L24.206263 165.53854L24.206263 164.55417L24.909388 164.5073Q24.096888 163.83542 24.096888 162.66354Q24.096888 161.52292 24.956263 160.86667Q25.815638 160.1948 27.346888 160.1948L27.456263 160.1948ZM27.331263 161.27292Q26.253138 161.27292 25.643763 161.74167Q25.018763 162.1948 25.018763 162.99167Q25.018763 163.97604 25.878138 164.46042L28.909388 164.46042Q29.784388 163.97604 29.784388 162.97604Q29.784388 162.1948 29.175013 161.74167Q28.550013 161.27292 27.331263 161.27292ZM31.284388 158.33542L31.284388 159.2573L22.018763 155.6948L22.018763 154.77292L31.284388 158.33542ZM28.862513 149.85104Q28.425013 149.85104 28.190638 150.1948Q27.940638 150.52292 27.768763 151.35104Q27.596888 152.16354 27.346888 152.64792Q27.096888 153.1323 26.768763 153.36667Q26.425013 153.58542 25.956263 153.58542Q25.175013 153.58542 24.643763 152.92917Q24.096888 152.27292 24.096888 151.24167Q24.096888 150.16354 24.659388 149.5073Q25.206263 148.83542 26.065638 148.83542L26.065638 149.91354Q25.628138 149.91354 25.315638 150.30417Q24.987513 150.67917 24.987513 151.24167Q24.987513 151.83542 25.253138 152.17917Q25.503138 152.5073 25.909388 152.5073Q26.300013 152.5073 26.503138 152.1948Q26.706263 151.8823 26.893763 151.0698Q27.065638 150.2573 27.315638 149.7573Q27.565638 149.2573 27.925013 149.02292Q28.284388 148.77292 28.784388 148.77292Q29.643763 148.77292 30.159388 149.46042Q30.675013 150.1323 30.675013 151.21042Q30.675013 151.97604 30.409388 152.5698Q30.128138 153.14792 29.643763 153.47604Q29.159388 153.80417 28.596888 153.80417L28.596888 152.72604Q29.143763 152.6948 29.471888 152.28854Q29.784388 151.8823 29.784388 151.21042Q29.784388 150.60104 29.534388 150.22604Q29.284388 149.85104 28.862513 149.85104Z" fill-rule="nonzero"/><path fill="#757575" d="M71.6125 299.3094Q71.6125 301.21564 70.95625 302.15314Q70.31563 303.075 68.925 303.075Q67.56563 303.075 66.90938 302.16876Q66.25313 301.2625 66.22188 299.45L66.22188 298.0125Q66.22188 296.1219 66.8625 295.21564Q67.51875 294.29376 68.90938 294.29376Q70.28438 294.29376 70.94063 295.1844Q71.59688 296.0594 71.6125 297.90314L71.6125 299.3094ZM70.51875 297.825Q70.51875 296.45 70.12813 295.825Q69.75313 295.1844 68.90938 295.1844Q68.08125 295.1844 67.69063 295.825Q67.31563 296.45 67.31563 297.7469L67.31563 299.48126Q67.31563 300.85626 67.70625 301.52814Q68.1125 302.1844 68.925 302.1844Q69.72188 302.1844 70.1125 301.5594Q70.50313 300.9344 70.51875 299.60626L70.51875 297.825Z" fill-rule="nonzero"/><path fill="#757575" d="M69.81563 261.21667L68.7375 261.21667L68.7375 253.99792L66.55 254.7948L66.55 253.81042L69.65938 252.63855L69.81563 252.63855L69.81563 261.21667Z" fill-rule="nonzero"/><path fill="#757575" d="M71.84688 219.48334L66.25313 219.48334L66.25313 218.70209L69.20625 215.42084Q69.8625 214.67084 70.1125 214.21771Q70.3625 213.74896 70.3625 213.24896Q70.3625 212.57709 69.95625 212.15521Q69.56563 211.71771 68.87813 211.71771Q68.08125 211.71771 67.62813 212.18646Q67.175 212.63959 67.175 213.46771L66.09688 213.46771Q66.09688 212.28021 66.84688 211.56146Q67.6125 210.82709 68.87813 210.82709Q70.08125 210.82709 70.76875 211.45209Q71.45625 212.07709 71.45625 213.12396Q71.45625 214.37396 69.84688 216.12396L67.56563 218.59271L71.84688 218.59271L71.84688 219.48334Z" fill-rule="nonzero"/><path fill="#757575" d="M67.83125 172.95312L68.64375 172.95312Q69.425 172.9375 69.8625 172.54688Q70.3 172.15625 70.3 171.48438Q70.3 169.98438 68.8 169.98438Q68.09688 169.98438 67.675 170.39062Q67.26875 170.79688 67.26875 171.45312L66.175 171.45312Q66.175 170.4375 66.90938 169.76562Q67.65938 169.09375 68.8 169.09375Q70.00313 169.09375 70.69063 169.73438Q71.37813 170.375 71.37813 171.51562Q71.37813 172.07812 71.01875 172.59375Q70.65938 173.10938 70.03438 173.375Q70.7375 173.59375 71.1125 174.10938Q71.50313 174.625 71.50313 175.375Q71.50313 176.51562 70.75313 177.20312Q70.00313 177.875 68.8 177.875Q67.6125 177.875 66.84688 177.21875Q66.09688 176.5625 66.09688 175.5L67.19063 175.5Q67.19063 176.17188 67.62813 176.57812Q68.06563 176.98438 68.81563 176.98438Q69.59688 176.98438 70.00313 176.57812Q70.425 176.15625 70.425 175.39062Q70.425 174.65625 69.97188 174.26562Q69.51875 173.85938 68.64375 173.84375L67.83125 173.84375L67.83125 172.95312Z" fill-rule="nonzero"/><path fill="#757575" d="M70.83125 133.15729L72.01875 133.15729L72.01875 134.03229L70.83125 134.03229L70.83125 136.01666L69.75313 136.01666L69.75313 134.03229L65.8625 134.03229L65.8625 133.39166L69.675 127.48541L70.83125 127.48541L70.83125 133.15729ZM67.09688 133.15729L69.75313 133.15729L69.75313 128.96979L69.6125 129.20416L67.09688 133.15729Z" fill-rule="nonzero"/><path fill="#757575" d="M66.75313 90.00208L67.19063 85.75208L71.56563 85.75208L71.56563 86.75208L68.1125 86.75208L67.84688 89.08021Q68.4875 88.70521 69.28438 88.70521Q70.44063 88.70521 71.12813 89.48646Q71.81563 90.25208 71.81563 91.56458Q71.81563 92.87708 71.09688 93.64271Q70.39375 94.40833 69.1125 94.40833Q67.9875 94.40833 67.26875 93.78333Q66.55 93.14271 66.45625 92.03333L67.47188 92.03333Q67.58125 92.76771 68.00313 93.14271Q68.425 93.51771 69.1125 93.51771Q69.8625 93.51771 70.3 93.00208Q70.7375 92.48646 70.7375 91.58021Q70.7375 90.72083 70.26875 90.20521Q69.8 89.68958 69.01875 89.68958Q68.31563 89.68958 67.90938 89.98646L67.62813 90.22083L66.75313 90.00208Z" fill-rule="nonzero"/><path fill="#757575" d="M88.93314 316.45L87.85502 316.45L87.85502 309.23126L85.66752 310.02814L85.66752 309.04376L88.77689 307.8719L88.93314 307.8719L88.93314 316.45Z" fill-rule="nonzero"/><path fill="#757575" d="M187.69739 316.45L182.10364 316.45L182.10364 315.66876L185.05676 312.3875Q185.71301 311.6375 185.96301 311.1844Q186.21301 310.71564 186.21301 310.21564Q186.21301 309.54376 185.80676 309.1219Q185.41614 308.6844 184.72864 308.6844Q183.93176 308.6844 183.47864 309.15314Q183.02551 309.60626 183.02551 310.4344L181.94739 310.4344Q181.94739 309.2469 182.69739 308.52814Q183.46301 307.79376 184.72864 307.79376Q185.93176 307.79376 186.61926 308.41876Q187.30676 309.04376 187.30676 310.09064Q187.30676 311.34064 185.69739 313.09064L183.41614 315.5594L187.69739 315.5594L187.69739 316.45Z" fill-rule="nonzero"/><path fill="#757575" d="M280.41476 311.65314L281.22726 311.65314Q282.0085 311.6375 282.446 311.2469Q282.8835 310.85626 282.8835 310.1844Q282.8835 308.6844 281.3835 308.6844Q280.6804 308.6844 280.2585 309.09064Q279.85226 309.4969 279.85226 310.15314L278.7585 310.15314Q278.7585 309.1375 279.4929 308.46564Q280.2429 307.79376 281.3835 307.79376Q282.58664 307.79376 283.27414 308.4344Q283.96164 309.075 283.96164 310.21564Q283.96164 310.77814 283.60226 311.29376Q283.2429 311.8094 282.6179 312.075Q283.321 312.29376 283.696 312.8094Q284.08664 313.325 284.08664 314.075Q284.08664 315.21564 283.33664 315.90314Q282.58664 316.575 281.3835 316.575Q280.196 316.575 279.4304 315.91876Q278.6804 315.2625 278.6804 314.2L279.77414 314.2Q279.77414 314.8719 280.21164 315.27814Q280.64914 315.6844 281.39914 315.6844Q282.1804 315.6844 282.58664 315.27814Q283.0085 314.85626 283.0085 314.09064Q283.0085 313.35626 282.5554 312.96564Q282.10226 312.5594 281.22726 312.54376L280.41476 312.54376L280.41476 311.65314Z" fill-rule="nonzero"/><path fill="#757575" d="M380.14774 313.59064L381.33524 313.59064L381.33524 314.46564L380.14774 314.46564L380.14774 316.45L379.0696 316.45L379.0696 314.46564L375.179 314.46564L375.179 313.825L378.9915 307.91876L380.14774 307.91876L380.14774 313.59064ZM376.41336 313.59064L379.0696 313.59064L379.0696 309.40314L378.929 309.6375L376.41336 313.59064Z" fill-rule="nonzero"/><path fill="#757575" d="M472.8026 312.16876L473.2401 307.91876L477.6151 307.91876L477.6151 308.91876L474.162 308.91876L473.89636 311.2469Q474.537 310.8719 475.33386 310.8719Q476.4901 310.8719 477.1776 311.65314Q477.8651 312.41876 477.8651 313.73126Q477.8651 315.04376 477.14636 315.8094Q476.44324 316.575 475.162 316.575Q474.037 316.575 473.31824 315.95Q472.5995 315.3094 472.50574 314.2L473.52136 314.2Q473.63074 314.9344 474.0526 315.3094Q474.4745 315.6844 475.162 315.6844Q475.912 315.6844 476.3495 315.16876Q476.787 314.65314 476.787 313.7469Q476.787 312.8875 476.31824 312.3719Q475.8495 311.85626 475.06824 311.85626Q474.3651 311.85626 473.95886 312.15314L473.6776 312.3875L472.8026 312.16876Z" fill-rule="nonzero"/><path fill="#757575" d="M573.3012 307.91876L573.3012 308.825L573.0981 308.825Q571.83246 308.85626 571.08246 309.59064Q570.33246 310.3094 570.20746 311.6219Q570.89496 310.85626 572.0512 310.85626Q573.1606 310.85626 573.83246 311.6375Q574.50433 312.41876 574.50433 313.66876Q574.50433 314.98126 573.7856 315.77814Q573.06683 316.575 571.8481 316.575Q570.62933 316.575 569.8637 315.6375Q569.1137 314.6844 569.1137 313.2L569.1137 312.79376Q569.1137 310.4344 570.1137 309.1844Q571.1137 307.9344 573.0981 307.91876L573.3012 307.91876ZM571.87933 311.7625Q571.31683 311.7625 570.8481 312.09064Q570.37933 312.41876 570.19183 312.9344L570.19183 313.325Q570.19183 314.3875 570.6606 315.02814Q571.14496 315.66876 571.8481 315.66876Q572.58246 315.66876 573.00433 315.1375Q573.4262 314.59064 573.4262 313.71564Q573.4262 312.84064 573.00433 312.3094Q572.58246 311.7625 571.87933 311.7625Z" fill-rule="nonzero"/><path fill="#4285f4" d="M141.5 56.416668L146.69615 65.416664L136.30385 65.416664Z" fill-rule="nonzero"/><path fill="#757575" d="M156.48438 66.916664L156.48438 58.385414L159.28125 58.385414Q160.67188 58.385414 161.35938 58.96354Q162.0625 59.52604 162.0625 60.65104Q162.0625 61.260414 161.71875 61.729164Q161.39062 62.18229 160.79688 62.43229Q161.5 62.61979 161.89062 63.166664Q162.29688 63.697914 162.29688 64.447914Q162.29688 65.604164 161.54688 66.260414Q160.8125 66.916664 159.45312 66.916664L156.48438 66.916664ZM157.60938 62.93229L157.60938 65.99479L159.46875 65.99479Q160.26562 65.99479 160.71875 65.58854Q161.17188 65.18229 161.17188 64.46354Q161.17188 62.93229 159.48438 62.93229L157.60938 62.93229ZM157.60938 62.02604L159.3125 62.02604Q160.04688 62.02604 160.48438 61.666664Q160.9375 61.291664 160.9375 60.65104Q160.9375 59.947914 160.53125 59.635414Q160.125 59.30729 159.28125 59.30729L157.60938 59.30729L157.60938 62.02604ZM164.5 66.916664L163.42188 66.916664L163.42188 57.916664L164.5 57.916664L164.5 66.916664ZM166.03125 63.68229Q166.03125 62.760414 166.39062 62.010414Q166.76562 61.260414 167.42188 60.86979Q168.07812 60.46354 168.90625 60.46354Q170.20312 60.46354 171.0 61.354164Q171.8125 62.24479 171.8125 63.74479L171.8125 63.822914Q171.8125 64.74479 171.45312 65.479164Q171.09375 66.21354 170.4375 66.635414Q169.78125 67.041664 168.92188 67.041664Q167.64062 67.041664 166.82812 66.15104Q166.03125 65.24479 166.03125 63.760414L166.03125 63.68229ZM167.125 63.822914Q167.125 64.86979 167.60938 65.510414Q168.10938 66.15104 168.92188 66.15104Q169.75 66.15104 170.23438 65.510414Q170.71875 64.854164 170.71875 63.68229Q170.71875 62.65104 170.21875 62.010414Q169.73438 61.354164 168.90625 61.354164Q168.10938 61.354164 167.60938 61.99479Q167.125 62.61979 167.125 63.822914ZM173.03125 63.68229Q173.03125 62.760414 173.39062 62.010414Q173.76562 61.260414 174.42188 60.86979Q175.07812 60.46354 175.90625 60.46354Q177.20312 60.46354 178.0 61.354164Q178.8125 62.24479 178.8125 63.74479L178.8125 63.822914Q178.8125 64.74479 178.45312 65.479164Q178.09375 66.21354 177.4375 66.635414Q176.78125 67.041664 175.92188 67.041664Q174.64062 67.041664 173.82812 66.15104Q173.03125 65.24479 173.03125 63.760414L173.03125 63.68229ZM174.125 63.822914Q174.125 64.86979 174.60938 65.510414Q175.10938 66.15104 175.92188 66.15104Q176.75 66.15104 177.23438 65.510414Q177.71875 64.854164 177.71875 63.68229Q177.71875 62.65104 177.21875 62.010414Q176.73438 61.354164 175.90625 61.354164Q175.10938 61.354164 174.60938 61.99479Q174.125 62.61979 174.125 63.822914ZM181.34375 60.572914L181.375 61.27604Q182.0625 60.46354 183.25 60.46354Q184.57812 60.46354 185.0625 61.479164Q185.375 61.02604 185.875 60.74479Q186.39062 60.46354 187.07812 60.46354Q189.17188 60.46354 189.20312 62.666664L189.20312 66.916664L188.125 66.916664L188.125 62.729164Q188.125 62.05729 187.8125 61.729164Q187.5 61.385414 186.76562 61.385414Q186.15625 61.385414 185.75 61.74479Q185.35938 62.104164 185.29688 62.71354L185.29688 66.916664L184.21875 66.916664L184.21875 62.760414Q184.21875 61.385414 182.85938 61.385414Q181.79688 61.385414 181.40625 62.291664L181.40625 66.916664L180.3125 66.916664L180.3125 60.572914L181.34375 60.572914ZM199.20312 63.15104L195.60938 63.15104L195.60938 66.916664L194.48438 66.916664L194.48438 58.385414L199.78125 58.385414L199.78125 59.30729L195.60938 59.30729L195.60938 62.229164L199.20312 62.229164L199.20312 63.15104ZM202.5 66.916664L201.42188 66.916664L201.42188 60.572914L202.5 60.572914L202.5 66.916664ZM201.32812 58.90104Q201.32812 58.635414 201.48438 58.447914Q201.65625 58.260414 201.96875 58.260414Q202.28125 58.260414 202.4375 58.447914Q202.60938 58.635414 202.60938 58.90104Q202.60938 59.15104 202.4375 59.33854Q202.28125 59.510414 201.96875 59.510414Q201.65625 59.510414 201.48438 59.33854Q201.32812 59.15104 201.32812 58.90104ZM205.5 66.916664L204.42188 66.916664L204.42188 57.916664L205.5 57.916664L205.5 66.916664ZM208.79688 59.041664L208.79688 60.572914L209.96875 60.572914L209.96875 61.416664L208.79688 61.416664L208.79688 65.33854Q208.79688 65.729164 208.95312 65.916664Q209.10938 66.104164 209.48438 66.104164Q209.67188 66.104164 210.0 66.041664L210.0 66.916664Q209.57812 67.041664 209.17188 67.041664Q208.45312 67.041664 208.07812 66.604164Q207.70312 66.15104 207.70312 65.33854L207.70312 61.416664L206.54688 61.416664L206.54688 60.572914L207.70312 60.572914L207.70312 59.041664L208.79688 59.041664ZM213.95312 67.041664Q212.65625 67.041664 211.84375 66.197914Q211.04688 65.33854 211.04688 63.916664L211.04688 63.729164Q211.04688 62.77604 211.40625 62.041664Q211.76562 61.291664 212.40625 60.885414Q213.0625 60.46354 213.8125 60.46354Q215.04688 60.46354 215.73438 61.27604Q216.42188 62.08854 216.42188 63.604164L216.42188 64.05729L212.125 64.05729Q212.15625 64.99479 212.67188 65.572914Q213.20312 66.15104 214.01562 66.15104Q214.57812 66.15104 214.96875 65.916664Q215.375 65.68229 215.6875 65.291664L216.34375 65.80729Q215.54688 67.041664 213.95312 67.041664ZM213.8125 61.354164Q213.15625 61.354164 212.70312 61.83854Q212.26562 62.30729 212.17188 63.166664L215.34375 63.166664L215.34375 63.08854Q215.29688 62.260414 214.89062 61.80729Q214.5 61.354164 213.8125 61.354164ZM220.39062 61.541664Q220.14062 61.510414 219.85938 61.510414Q218.78125 61.510414 218.40625 62.416664L218.40625 66.916664L217.32812 66.916664L217.32812 60.572914L218.375 60.572914L218.39062 61.30729Q218.92188 60.46354 219.90625 60.46354Q220.21875 60.46354 220.39062 60.541664L220.39062 61.541664Z" fill-rule="nonzero"/><path fill="#db4437" d="M248.5 62.416668C248.5 65.73038 245.8137 68.416664 242.5 68.416664C239.1863 68.416664 236.5 65.73038 236.5 62.416668C236.5 59.10296 239.1863 56.416668 242.5 56.416668C245.8137 56.416668 248.5 59.10296 248.5 62.416668Z" fill-rule="nonzero"/><path fill="#757575" d="M260.0 63.11979Q258.5625 62.697914 257.89062 62.08854Q257.23438 61.479164 257.23438 60.58854Q257.23438 59.58854 258.03125 58.93229Q258.84375 58.260414 260.14062 58.260414Q261.01562 58.260414 261.70312 58.604164Q262.39062 58.947914 262.76562 59.541664Q263.15625 60.135414 263.15625 60.854164L262.01562 60.854164Q262.01562 60.072914 261.51562 59.635414Q261.03125 59.197914 260.14062 59.197914Q259.3125 59.197914 258.84375 59.572914Q258.375 59.93229 258.375 60.572914Q258.375 61.104164 258.8125 61.46354Q259.26562 61.822914 260.32812 62.11979Q261.39062 62.416664 261.98438 62.77604Q262.59375 63.135414 262.875 63.61979Q263.17188 64.104164 263.17188 64.74479Q263.17188 65.791664 262.35938 66.416664Q261.54688 67.041664 260.20312 67.041664Q259.3125 67.041664 258.54688 66.697914Q257.79688 66.354164 257.375 65.77604Q256.96875 65.18229 256.96875 64.447914L258.09375 64.447914Q258.09375 65.21354 258.67188 65.666664Q259.25 66.11979 260.20312 66.11979Q261.09375 66.11979 261.5625 65.760414Q262.03125 65.385414 262.03125 64.760414Q262.03125 64.135414 261.59375 63.791664Q261.15625 63.447914 260.0 63.11979ZM268.23438 66.291664Q267.60938 67.041664 266.375 67.041664Q265.35938 67.041664 264.82812 66.447914Q264.29688 65.854164 264.29688 64.697914L264.29688 60.572914L265.375 60.572914L265.375 64.666664Q265.375 66.11979 266.54688 66.11979Q267.79688 66.11979 268.20312 65.18229L268.20312 60.572914L269.29688 60.572914L269.29688 66.916664L268.26562 66.916664L268.23438 66.291664ZM274.625 63.46354L272.60938 63.46354L272.60938 66.916664L271.48438 66.916664L271.48438 58.385414L274.3125 58.385414Q275.75 58.385414 276.51562 59.041664Q277.29688 59.697914 277.29688 60.947914Q277.29688 61.74479 276.85938 62.33854Q276.4375 62.93229 275.67188 63.229164L277.67188 66.83854L277.67188 66.916664L276.46875 66.916664L274.625 63.46354ZM272.60938 62.541664L274.34375 62.541664Q275.1875 62.541664 275.67188 62.11979Q276.17188 61.68229 276.17188 60.947914Q276.17188 60.166664 275.70312 59.74479Q275.23438 59.322914 274.34375 59.30729L272.60938 59.30729L272.60938 62.541664ZM283.20312 63.15104L279.60938 63.15104L279.60938 66.916664L278.48438 66.916664L278.48438 58.385414L283.78125 58.385414L283.78125 59.30729L279.60938 59.30729L279.60938 62.229164L283.20312 62.229164L283.20312 63.15104Z" fill-rule="nonzero"/><path fill="#f4b400" d="M302.25735 58.174026L310.74265 58.174026L310.74265 66.65931L302.25735 66.65931Z" fill-rule="nonzero"/><path fill="#757575" d="M324.0 63.11979Q322.5625 62.697914 321.89062 62.08854Q321.23438 61.479164 321.23438 60.58854Q321.23438 59.58854 322.03125 58.93229Q322.84375 58.260414 324.14062 58.260414Q325.01562 58.260414 325.70312 58.604164Q326.39062 58.947914 326.76562 59.541664Q327.15625 60.135414 327.15625 60.854164L326.01562 60.854164Q326.01562 60.072914 325.51562 59.635414Q325.03125 59.197914 324.14062 59.197914Q323.3125 59.197914 322.84375 59.572914Q322.375 59.93229 322.375 60.572914Q322.375 61.104164 322.8125 61.46354Q323.26562 61.822914 324.32812 62.11979Q325.39062 62.416664 325.98438 62.77604Q326.59375 63.135414 326.875 63.61979Q327.17188 64.104164 327.17188 64.74479Q327.17188 65.791664 326.35938 66.416664Q325.54688 67.041664 324.20312 67.041664Q323.3125 67.041664 322.54688 66.697914Q321.79688 66.354164 321.375 65.77604Q320.96875 65.18229 320.96875 64.447914L322.09375 64.447914Q322.09375 65.21354 322.67188 65.666664Q323.25 66.11979 324.20312 66.11979Q325.09375 66.11979 325.5625 65.760414Q326.03125 65.385414 326.03125 64.760414Q326.03125 64.135414 325.59375 63.791664Q325.15625 63.447914 324.0 63.11979ZM332.23438 66.291664Q331.60938 67.041664 330.375 67.041664Q329.35938 67.041664 328.82812 66.447914Q328.29688 65.854164 328.29688 64.697914L328.29688 60.572914L329.375 60.572914L329.375 64.666664Q329.375 66.11979 330.54688 66.11979Q331.79688 66.11979 332.20312 65.18229L332.20312 60.572914L333.29688 60.572914L333.29688 66.916664L332.26562 66.916664L332.23438 66.291664ZM338.625 63.46354L336.60938 63.46354L336.60938 66.916664L335.48438 66.916664L335.48438 58.385414L338.3125 58.385414Q339.75 58.385414 340.51562 59.041664Q341.29688 59.697914 341.29688 60.947914Q341.29688 61.74479 340.85938 62.33854Q340.4375 62.93229 339.67188 63.229164L341.67188 66.83854L341.67188 66.916664L340.46875 66.916664L338.625 63.46354ZM336.60938 62.541664L338.34375 62.541664Q339.1875 62.541664 339.67188 62.11979Q340.17188 61.68229 340.17188 60.947914Q340.17188 60.166664 339.70312 59.74479Q339.23438 59.322914 338.34375 59.30729L336.60938 59.30729L336.60938 62.541664ZM347.20312 63.15104L343.60938 63.15104L343.60938 66.916664L342.48438 66.916664L342.48438 58.385414L347.78125 58.385414L347.78125 59.30729L343.60938 59.30729L343.60938 62.229164L347.20312 62.229164L347.20312 63.15104ZM356.04688 66.916664L354.92188 66.916664L354.92188 62.979164L350.60938 62.979164L350.60938 66.916664L349.48438 66.916664L349.48438 58.385414L350.60938 58.385414L350.60938 62.05729L354.92188 62.05729L354.92188 58.385414L356.04688 58.385414L356.04688 66.916664ZM362.23438 66.916664Q362.14062 66.729164 362.07812 66.24479Q361.32812 67.041664 360.28125 67.041664Q359.34375 67.041664 358.73438 66.510414Q358.14062 65.979164 358.14062 65.15104Q358.14062 64.166664 358.89062 63.61979Q359.64062 63.072914 361.01562 63.072914L362.0625 63.072914L362.0625 62.572914Q362.0625 62.010414 361.71875 61.68229Q361.39062 61.33854 360.71875 61.33854Q360.14062 61.33854 359.75 61.635414Q359.35938 61.916664 359.35938 62.33854L358.26562 62.33854Q358.26562 61.854164 358.59375 61.416664Q358.9375 60.979164 359.51562 60.729164Q360.09375 60.46354 360.78125 60.46354Q361.89062 60.46354 362.5 61.010414Q363.125 61.55729 363.15625 62.510414L363.15625 65.43229Q363.15625 66.30729 363.375 66.822914L363.375 66.916664L362.23438 66.916664ZM360.4375 66.08854Q360.95312 66.08854 361.40625 65.822914Q361.85938 65.55729 362.0625 65.135414L362.0625 63.83854L361.21875 63.83854Q359.21875 63.83854 359.21875 65.010414Q359.21875 65.510414 359.5625 65.80729Q359.90625 66.08854 360.4375 66.08854ZM369.01562 65.229164Q369.01562 64.791664 368.67188 64.55729Q368.34375 64.30729 367.51562 64.135414Q366.70312 63.96354 366.21875 63.71354Q365.73438 63.46354 365.5 63.135414Q365.28125 62.791664 365.28125 62.322914Q365.28125 61.541664 365.9375 61.010414Q366.59375 60.46354 367.625 60.46354Q368.70312 60.46354 369.35938 61.02604Q370.03125 61.572914 370.03125 62.43229L368.95312 62.43229Q368.95312 61.99479 368.5625 61.68229Q368.1875 61.354164 367.625 61.354164Q367.03125 61.354164 366.6875 61.61979Q366.35938 61.86979 366.35938 62.27604Q366.35938 62.666664 366.67188 62.86979Q366.98438 63.072914 367.79688 63.260414Q368.60938 63.43229 369.10938 63.68229Q369.60938 63.93229 369.84375 64.291664Q370.09375 64.65104 370.09375 65.15104Q370.09375 66.010414 369.40625 66.52604Q368.73438 67.041664 367.65625 67.041664Q366.89062 67.041664 366.29688 66.77604Q365.71875 66.49479 365.39062 66.010414Q365.0625 65.52604 365.0625 64.96354L366.14062 64.96354Q366.17188 65.510414 366.57812 65.83854Q366.98438 66.15104 367.65625 66.15104Q368.26562 66.15104 368.64062 65.90104Q369.01562 65.65104 369.01562 65.229164ZM372.40625 61.33854Q373.125 60.46354 374.28125 60.46354Q376.29688 60.46354 376.3125 62.729164L376.3125 66.916664L375.21875 66.916664L375.21875 62.71354Q375.21875 62.041664 374.90625 61.71354Q374.60938 61.385414 373.95312 61.385414Q373.42188 61.385414 373.01562 61.666664Q372.625 61.947914 372.40625 62.40104L372.40625 66.916664L371.32812 66.916664L371.32812 57.916664L372.40625 57.916664L372.40625 61.33854Z" fill-rule="nonzero"/><path fill="#0f9d58" d="M399.5 56.416668L405.20633 60.562565L403.0267 67.27077L395.9733 67.27077L393.79367 60.562565Z" fill-rule="nonzero"/><path fill="#757575" d="M417.0 63.11979Q415.5625 62.697914 414.89062 62.08854Q414.23438 61.479164 414.23438 60.58854Q414.23438 59.58854 415.03125 58.93229Q415.84375 58.260414 417.14062 58.260414Q418.01562 58.260414 418.70312 58.604164Q419.39062 58.947914 419.76562 59.541664Q420.15625 60.135414 420.15625 60.854164L419.01562 60.854164Q419.01562 60.072914 418.51562 59.635414Q418.03125 59.197914 417.14062 59.197914Q416.3125 59.197914 415.84375 59.572914Q415.375 59.93229 415.375 60.572914Q415.375 61.104164 415.8125 61.46354Q416.26562 61.822914 417.32812 62.11979Q418.39062 62.416664 418.98438 62.77604Q419.59375 63.135414 419.875 63.61979Q420.17188 64.104164 420.17188 64.74479Q420.17188 65.791664 419.35938 66.416664Q418.54688 67.041664 417.20312 67.041664Q416.3125 67.041664 415.54688 66.697914Q414.79688 66.354164 414.375 65.77604Q413.96875 65.18229 413.96875 64.447914L415.09375 64.447914Q415.09375 65.21354 415.67188 65.666664Q416.25 66.11979 417.20312 66.11979Q418.09375 66.11979 418.5625 65.760414Q419.03125 65.385414 419.03125 64.760414Q419.03125 64.135414 418.59375 63.791664Q418.15625 63.447914 417.0 63.11979ZM425.23438 66.291664Q424.60938 67.041664 423.375 67.041664Q422.35938 67.041664 421.82812 66.447914Q421.29688 65.854164 421.29688 64.697914L421.29688 60.572914L422.375 60.572914L422.375 64.666664Q422.375 66.11979 423.54688 66.11979Q424.79688 66.11979 425.20312 65.18229L425.20312 60.572914L426.29688 60.572914L426.29688 66.916664L425.26562 66.916664L425.23438 66.291664ZM431.625 63.46354L429.60938 63.46354L429.60938 66.916664L428.48438 66.916664L428.48438 58.385414L431.3125 58.385414Q432.75 58.385414 433.51562 59.041664Q434.29688 59.697914 434.29688 60.947914Q434.29688 61.74479 433.85938 62.33854Q433.4375 62.93229 432.67188 63.229164L434.67188 66.83854L434.67188 66.916664L433.46875 66.916664L431.625 63.46354ZM429.60938 62.541664L431.34375 62.541664Q432.1875 62.541664 432.67188 62.11979Q433.17188 61.68229 433.17188 60.947914Q433.17188 60.166664 432.70312 59.74479Q432.23438 59.322914 431.34375 59.30729L429.60938 59.30729L429.60938 62.541664ZM440.20312 63.15104L436.60938 63.15104L436.60938 66.916664L435.48438 66.916664L435.48438 58.385414L440.78125 58.385414L440.78125 59.30729L436.60938 59.30729L436.60938 62.229164L440.20312 62.229164L440.20312 63.15104ZM445.625 63.46354L443.60938 63.46354L443.60938 66.916664L442.48438 66.916664L442.48438 58.385414L445.3125 58.385414Q446.75 58.385414 447.51562 59.041664Q448.29688 59.697914 448.29688 60.947914Q448.29688 61.74479 447.85938 62.33854Q447.4375 62.93229 446.67188 63.229164L448.67188 66.83854L448.67188 66.916664L447.46875 66.916664L445.625 63.46354ZM443.60938 62.541664L445.34375 62.541664Q446.1875 62.541664 446.67188 62.11979Q447.17188 61.68229 447.17188 60.947914Q447.17188 60.166664 446.70312 59.74479Q446.23438 59.322914 445.34375 59.30729L443.60938 59.30729L443.60938 62.541664ZM451.95312 67.041664Q450.65625 67.041664 449.84375 66.197914Q449.04688 65.33854 449.04688 63.916664L449.04688 63.729164Q449.04688 62.77604 449.40625 62.041664Q449.76562 61.291664 450.40625 60.885414Q451.0625 60.46354 451.8125 60.46354Q453.04688 60.46354 453.73438 61.27604Q454.42188 62.08854 454.42188 63.604164L454.42188 64.05729L450.125 64.05729Q450.15625 64.99479 450.67188 65.572914Q451.20312 66.15104 452.01562 66.15104Q452.57812 66.15104 452.96875 65.916664Q453.375 65.68229 453.6875 65.291664L454.34375 65.80729Q453.54688 67.041664 451.95312 67.041664ZM451.8125 61.354164Q451.15625 61.354164 450.70312 61.83854Q450.26562 62.30729 450.17188 63.166664L453.34375 63.166664L453.34375 63.08854Q453.29688 62.260414 452.89062 61.80729Q452.5 61.354164 451.8125 61.354164ZM459.23438 66.916664Q459.14062 66.729164 459.07812 66.24479Q458.32812 67.041664 457.28125 67.041664Q456.34375 67.041664 455.73438 66.510414Q455.14062 65.979164 455.14062 65.15104Q455.14062 64.166664 455.89062 63.61979Q456.64062 63.072914 458.01562 63.072914L459.0625 63.072914L459.0625 62.572914Q459.0625 62.010414 458.71875 61.68229Q458.39062 61.33854 457.71875 61.33854Q457.14062 61.33854 456.75 61.635414Q456.35938 61.916664 456.35938 62.33854L455.26562 62.33854Q455.26562 61.854164 455.59375 61.416664Q455.9375 60.979164 456.51562 60.729164Q457.09375 60.46354 457.78125 60.46354Q458.89062 60.46354 459.5 61.010414Q460.125 61.55729 460.15625 62.510414L460.15625 65.43229Q460.15625 66.30729 460.375 66.822914L460.375 66.916664L459.23438 66.916664ZM457.4375 66.08854Q457.95312 66.08854 458.40625 65.822914Q458.85938 65.55729 459.0625 65.135414L459.0625 63.83854L458.21875 63.83854Q456.21875 63.83854 456.21875 65.010414Q456.21875 65.510414 456.5625 65.80729Q456.90625 66.08854 457.4375 66.08854ZM463.5 66.916664L462.42188 66.916664L462.42188 57.916664L463.5 57.916664L463.5 66.916664Z" fill-rule="nonzero"/><path fill="#000000" d="M247.57812 23.33125L252.21875 34.925L256.875 23.33125L259.29688 23.33125L259.29688 37.55L257.42188 37.55L257.42188 32.01875L257.60938 26.034374L252.9375 37.55L251.5 37.55L246.84375 26.065624L247.03125 32.01875L247.03125 37.55L245.15625 37.55L245.15625 23.33125L247.57812 23.33125ZM268.39062 36.503124Q267.34375 37.753124 265.29688 37.753124Q263.60938 37.753124 262.71875 36.76875Q261.84375 35.784374 261.82812 33.8625L261.82812 26.9875L263.64062 26.9875L263.64062 33.815624Q263.64062 36.20625 265.59375 36.20625Q267.65625 36.20625 268.34375 34.675L268.34375 26.9875L270.15625 26.9875L270.15625 37.55L268.4375 37.55L268.39062 36.503124ZM274.82812 37.55L273.03125 37.55L273.03125 22.55L274.82812 22.55L274.82812 37.55ZM280.3125 24.425L280.3125 26.9875L282.29688 26.9875L282.29688 28.378124L280.3125 28.378124L280.3125 34.925Q280.3125 35.565624 280.57812 35.89375Q280.84375 36.20625 281.48438 36.20625Q281.79688 36.20625 282.34375 36.08125L282.34375 37.55Q281.625 37.753124 280.95312 37.753124Q279.75 37.753124 279.125 37.01875Q278.51562 36.284374 278.51562 34.925L278.51562 28.378124L276.59375 28.378124L276.59375 26.9875L278.51562 26.9875L278.51562 24.425L280.3125 24.425ZM286.82812 37.55L285.03125 37.55L285.03125 26.9875L286.82812 26.9875L286.82812 37.55ZM284.875 24.175Q284.875 23.7375 285.14062 23.440624Q285.42188 23.128124 285.9375 23.128124Q286.46875 23.128124 286.73438 23.440624Q287.01562 23.7375 287.01562 24.175Q287.01562 24.6125 286.73438 24.909374Q286.46875 25.20625 285.9375 25.20625Q285.42188 25.20625 285.14062 24.909374Q284.875 24.6125 284.875 24.175ZM304.96875 24.878124L300.40625 24.878124L300.40625 37.55L298.54688 37.55L298.54688 24.878124L293.98438 24.878124L293.98438 23.33125L304.96875 23.33125L304.96875 24.878124ZM308.67188 28.26875Q309.875 26.784374 311.79688 26.784374Q315.15625 26.784374 315.17188 30.565624L315.17188 37.55L313.375 37.55L313.375 30.55Q313.35938 29.409374 312.84375 28.8625Q312.34375 28.315624 311.25 28.315624Q310.375 28.315624 309.70312 28.784374Q309.04688 29.253124 308.67188 30.01875L308.67188 37.55L306.875 37.55L306.875 22.55L308.67188 22.55L308.67188 28.26875ZM322.96875 28.596874Q322.5625 28.534374 322.09375 28.534374Q320.3125 28.534374 319.67188 30.05L319.67188 37.55L317.875 37.55L317.875 26.9875L319.625 26.9875L319.65625 28.20625Q320.54688 26.784374 322.17188 26.784374Q322.70312 26.784374 322.96875 26.925L322.96875 28.596874ZM329.25 37.753124Q327.10938 37.753124 325.75 36.346874Q324.40625 34.925 324.40625 32.565624L324.40625 32.221874Q324.40625 30.659374 325.0 29.425Q325.60938 28.190624 326.6875 27.4875Q327.76562 26.784374 329.03125 26.784374Q331.09375 26.784374 332.23438 28.14375Q333.375 29.503124 333.375 32.034374L333.375 32.784374L326.21875 32.784374Q326.25 34.346874 327.125 35.315624Q328.0 36.26875 329.34375 36.26875Q330.3125 36.26875 330.96875 35.878124Q331.64062 35.4875 332.14062 34.846874L333.23438 35.70625Q331.90625 37.753124 329.25 37.753124ZM329.03125 28.26875Q327.9375 28.26875 327.1875 29.065624Q326.45312 29.8625 326.28125 31.3L331.5625 31.3L331.5625 31.159374Q331.48438 29.784374 330.8125 29.034374Q330.15625 28.26875 329.03125 28.26875ZM342.39062 37.55Q342.23438 37.2375 342.14062 36.440624Q340.875 37.753124 339.125 37.753124Q337.5625 37.753124 336.5625 36.8625Q335.5625 35.971874 335.5625 34.6125Q335.5625 32.971874 336.8125 32.065624Q338.07812 31.14375 340.34375 31.14375L342.10938 31.14375L342.10938 30.315624Q342.10938 29.3625 341.53125 28.8Q340.96875 28.2375 339.875 28.2375Q338.90625 28.2375 338.25 28.7375Q337.59375 29.221874 337.59375 29.909374L335.78125 29.909374Q335.78125 29.128124 336.34375 28.39375Q336.90625 27.64375 337.85938 27.221874Q338.82812 26.784374 339.98438 26.784374Q341.8125 26.784374 342.84375 27.70625Q343.875 28.6125 343.92188 30.221874L343.92188 35.08125Q343.92188 36.534374 344.28125 37.39375L344.28125 37.55L342.39062 37.55ZM339.39062 36.175Q340.25 36.175 341.0 35.7375Q341.76562 35.3 342.10938 34.596874L342.10938 32.425L340.6875 32.425Q337.375 32.425 337.375 34.3625Q337.375 35.221874 337.9375 35.70625Q338.5 36.175 339.39062 36.175ZM346.42188 32.175Q346.42188 29.753124 347.57812 28.26875Q348.73438 26.784374 350.59375 26.784374Q352.45312 26.784374 353.53125 28.05L353.53125 22.55L355.34375 22.55L355.34375 37.55L353.6875 37.55L353.59375 36.409374Q352.51562 37.753124 350.57812 37.753124Q348.75 37.753124 347.57812 36.253124Q346.42188 34.7375 346.42188 32.315624L346.42188 32.175ZM348.23438 32.378124Q348.23438 34.175 348.96875 35.190624Q349.71875 36.20625 351.03125 36.20625Q352.75 36.20625 353.53125 34.675L353.53125 29.815624Q352.73438 28.315624 351.04688 28.315624Q349.71875 28.315624 348.96875 29.346874Q348.23438 30.378124 348.23438 32.378124Z" fill-rule="nonzero"/></svg>